{
    "asset" : {
        "generator" : "Khronos glTF Blender I/O v1.5.17",
        "version" : "2.0"
    },
    "scene" : 0,
    "scenes" : [
        {
            "name" : "Scene",
            "nodes" : [
                0,
                1,
                2,
                3,
                4,
                5,
                6,
                7
            ]
        }
    ],
    "nodes" : [
        {
            "mesh" : 0,
            "name" : "leaves.002",
            "rotation" : [
                0.7071068286895752,
                0,
                0,
                0.7071067094802856
            ],
            "translation" : [
                6.31281042098999,
                -0.7142646908760071,
                -5.519639492034912
            ]
        },
        {
            "mesh" : 1,
            "name" : "leaves_leaves.002",
            "rotation" : [
                0.7071068286895752,
                0,
                0,
                0.7071067094802856
            ],
            "translation" : [
                6.31281042098999,
                -0.047985076904296875,
                -5.519639492034912
            ]
        },
        {
            "mesh" : 2,
            "name" : "tree.001_Mesh.001",
            "rotation" : [
                0.7071068286895752,
                0,
                0,
                0.7071067094802856
            ],
            "translation" : [
                6.31281042098999,
                -0.7142646908760071,
                -5.519639492034912
            ]
        },
        {
            "mesh" : 3,
            "name" : "tree_Mesh.003",
            "rotation" : [
                0.7071068286895752,
                0,
                0,
                0.7071067094802856
            ],
            "translation" : [
                6.31281042098999,
                -0.047985076904296875,
                -5.519639492034912
            ]
        },
        {
            "mesh" : 4,
            "name" : "Cube.005_Cube.001",
            "rotation" : [
                0.7071068286895752,
                0,
                0,
                0.7071067094802856
            ],
            "scale" : [
                1,
                1,
                3.484109401702881
            ],
            "translation" : [
                0,
                0.405154287815094,
                0.003424469381570816
            ]
        },
        {
            "mesh" : 5,
            "name" : "Plane",
            "rotation" : [
                0,
                0.2310190051794052,
                0,
                0.9729492664337158
            ],
            "scale" : [
                10.141637802124023,
                10.7662353515625,
                15.737242698669434
            ],
            "translation" : [
                -3.5777170658111572,
                0.08057744801044464,
                -5.175341606140137
            ]
        },
        {
            "name" : "Camera",
            "rotation" : [
                0.47860562801361084,
                0.5205157399177551,
                -0.4786056578159332,
                0.5205157399177551
            ],
            "translation" : [
                31.219219207763672,
                6.968787670135498,
                0.48148053884506226
            ]
        },
        {
            "name" : "Sun",
            "rotation" : [
                0.0019878260791301727,
                0,
                -0.6071445345878601,
                0.7945890426635742
            ],
            "translation" : [
                31.219219207763672,
                15.944172859191895,
                1.4741764068603516
            ]
        }
    ],
    "materials" : [
        {
            "doubleSided" : true,
            "name" : "Leaves",
            "pbrMetallicRoughness" : {
                "baseColorFactor" : [
                    0.23025700449943542,
                    0.35468798875808716,
                    0.029417000710964203,
                    1
                ],
                "metallicFactor" : 0,
                "roughnessFactor" : 0.6732679605484009
            }
        },
        {
            "doubleSided" : true,
            "name" : "Leaves.001",
            "pbrMetallicRoughness" : {
                "baseColorFactor" : [
                    0.22852399945259094,
                    0.36366501450538635,
                    0.04832899942994118,
                    1
                ],
                "metallicFactor" : 0,
                "roughnessFactor" : 0.5
            }
        },
        {
            "doubleSided" : true,
            "name" : "Material.008",
            "pbrMetallicRoughness" : {
                "baseColorFactor" : [
                    0.20179399847984314,
                    0.05090999975800514,
                    0,
                    1
                ],
                "metallicFactor" : 0,
                "roughnessFactor" : 0.6732679605484009
            }
        },
        {
            "doubleSided" : true,
            "name" : "Material.005",
            "pbrMetallicRoughness" : {
                "baseColorFactor" : [
                    0.800000011920929,
                    0.800000011920929,
                    0.800000011920929,
                    1
                ],
                "metallicFactor" : 0,
                "roughnessFactor" : 0.5
            }
        },
        {
            "doubleSided" : true,
            "name" : "Material",
            "pbrMetallicRoughness" : {
                "baseColorFactor" : [
                    0,
                    0,
                    0,
                    1
                ],
                "metallicFactor" : 0,
                "roughnessFactor" : 0.5
            }
        }
    ],
    "meshes" : [
        {
            "name" : "leaves.002",
            "primitives" : [
                {
                    "attributes" : {
                        "POSITION" : 0,
                        "NORMAL" : 1,
                        "TEXCOORD_0" : 2
                    },
                    "indices" : 3,
                    "material" : 0
                }
            ]
        },
        {
            "name" : "leaves_leaves.002",
            "primitives" : [
                {
                    "attributes" : {
                        "POSITION" : 4,
                        "NORMAL" : 5,
                        "TEXCOORD_0" : 6
                    },
                    "indices" : 7,
                    "material" : 1
                }
            ]
        },
        {
            "name" : "tree.001_Mesh.001",
            "primitives" : [
                {
                    "attributes" : {
                        "POSITION" : 8,
                        "NORMAL" : 9,
                        "TEXCOORD_0" : 10
                    },
                    "indices" : 11,
                    "material" : 2
                }
            ]
        },
        {
            "name" : "tree_Mesh.003",
            "primitives" : [
                {
                    "attributes" : {
                        "POSITION" : 12,
                        "NORMAL" : 13,
                        "TEXCOORD_0" : 14
                    },
                    "indices" : 15,
                    "material" : 2
                }
            ]
        },
        {
            "name" : "Cube.005_Cube.001",
            "primitives" : [
                {
                    "attributes" : {
                        "POSITION" : 16,
                        "NORMAL" : 17,
                        "TEXCOORD_0" : 18
                    },
                    "indices" : 19,
                    "material" : 3
                }
            ]
        },
        {
            "name" : "Plane.003",
            "primitives" : [
                {
                    "attributes" : {
                        "POSITION" : 20,
                        "NORMAL" : 21,
                        "TEXCOORD_0" : 22
                    },
                    "indices" : 23,
                    "material" : 4
                }
            ]
        }
    ],
    "accessors" : [
        {
            "bufferView" : 0,
            "componentType" : 5126,
            "count" : 362852,
            "max" : [
                -4.944533824920654,
                5.458528995513916,
                -1.8737590312957764
            ],
            "min" : [
                -6.767006874084473,
                3.418670892715454,
                -4.995304107666016
            ],
            "type" : "VEC3"
        },
        {
            "bufferView" : 1,
            "componentType" : 5126,
            "count" : 362852,
            "type" : "VEC3"
        },
        {
            "bufferView" : 2,
            "componentType" : 5126,
            "count" : 362852,
            "type" : "VEC2"
        },
        {
            "bufferView" : 3,
            "componentType" : 5125,
            "count" : 544278,
            "type" : "SCALAR"
        },
        {
            "bufferView" : 4,
            "componentType" : 5126,
            "count" : 297664,
            "max" : [
                -4.4090728759765625,
                9.093310356140137,
                -2.659576892852783
            ],
            "min" : [
                -9.678631782531738,
                4.3225932121276855,
                -8.622180938720703
            ],
            "type" : "VEC3"
        },
        {
            "bufferView" : 5,
            "componentType" : 5126,
            "count" : 297664,
            "type" : "VEC3"
        },
        {
            "bufferView" : 6,
            "componentType" : 5126,
            "count" : 297664,
            "type" : "VEC2"
        },
        {
            "bufferView" : 7,
            "componentType" : 5125,
            "count" : 446496,
            "type" : "SCALAR"
        },
        {
            "bufferView" : 8,
            "componentType" : 5126,
            "count" : 108416,
            "max" : [
                -4.953932762145996,
                5.418121814727783,
                -0.794642984867096
            ],
            "min" : [
                -6.735716819763184,
                3.458561897277832,
                -4.996360778808594
            ],
            "type" : "VEC3"
        },
        {
            "bufferView" : 9,
            "componentType" : 5126,
            "count" : 108416,
            "type" : "VEC3"
        },
        {
            "bufferView" : 10,
            "componentType" : 5126,
            "count" : 108416,
            "type" : "VEC2"
        },
        {
            "bufferView" : 11,
            "componentType" : 5125,
            "count" : 366192,
            "type" : "SCALAR"
        },
        {
            "bufferView" : 12,
            "componentType" : 5126,
            "count" : 88992,
            "max" : [
                -4.486940860748291,
                8.720037460327148,
                -0.12414900213479996
            ],
            "min" : [
                -9.571813583374023,
                4.132397174835205,
                -8.518230438232422
            ],
            "type" : "VEC3"
        },
        {
            "bufferView" : 13,
            "componentType" : 5126,
            "count" : 88992,
            "type" : "VEC3"
        },
        {
            "bufferView" : 14,
            "componentType" : 5126,
            "count" : 88992,
            "type" : "VEC2"
        },
        {
            "bufferView" : 15,
            "componentType" : 5125,
            "count" : 300672,
            "type" : "SCALAR"
        },
        {
            "bufferView" : 16,
            "componentType" : 5126,
            "count" : 24,
            "max" : [
                7.791079998016357,
                7.008190155029297,
                -0.031032999977469444
            ],
            "min" : [
                -7.791079998016357,
                -7.008190155029297,
                -0.9096329808235168
            ],
            "type" : "VEC3"
        },
        {
            "bufferView" : 17,
            "componentType" : 5126,
            "count" : 24,
            "type" : "VEC3"
        },
        {
            "bufferView" : 18,
            "componentType" : 5126,
            "count" : 24,
            "type" : "VEC2"
        },
        {
            "bufferView" : 19,
            "componentType" : 5123,
            "count" : 36,
            "type" : "SCALAR"
        },
        {
            "bufferView" : 20,
            "componentType" : 5126,
            "count" : 8,
            "max" : [
                1,
                1.0133073329925537,
                1
            ],
            "min" : [
                -1,
                0,
                -1
            ],
            "type" : "VEC3"
        },
        {
            "bufferView" : 21,
            "componentType" : 5126,
            "count" : 8,
            "type" : "VEC3"
        },
        {
            "bufferView" : 22,
            "componentType" : 5126,
            "count" : 8,
            "type" : "VEC2"
        },
        {
            "bufferView" : 23,
            "componentType" : 5123,
            "count" : 12,
            "type" : "SCALAR"
        }
    ],
    "bufferViews" : [
        {
            "buffer" : 0,
            "byteLength" : 4354224,
            "byteOffset" : 0
        },
        {
            "buffer" : 0,
            "byteLength" : 4354224,
            "byteOffset" : 4354224
        },
        {
            "buffer" : 0,
            "byteLength" : 2902816,
            "byteOffset" : 8708448
        },
        {
            "buffer" : 0,
            "byteLength" : 2177112,
            "byteOffset" : 11611264
        },
        {
            "buffer" : 0,
            "byteLength" : 3571968,
            "byteOffset" : 13788376
        },
        {
            "buffer" : 0,
            "byteLength" : 3571968,
            "byteOffset" : 17360344
        },
        {
            "buffer" : 0,
            "byteLength" : 2381312,
            "byteOffset" : 20932312
        },
        {
            "buffer" : 0,
            "byteLength" : 1785984,
            "byteOffset" : 23313624
        },
        {
            "buffer" : 0,
            "byteLength" : 1300992,
            "byteOffset" : 25099608
        },
        {
            "buffer" : 0,
            "byteLength" : 1300992,
            "byteOffset" : 26400600
        },
        {
            "buffer" : 0,
            "byteLength" : 867328,
            "byteOffset" : 27701592
        },
        {
            "buffer" : 0,
            "byteLength" : 1464768,
            "byteOffset" : 28568920
        },
        {
            "buffer" : 0,
            "byteLength" : 1067904,
            "byteOffset" : 30033688
        },
        {
            "buffer" : 0,
            "byteLength" : 1067904,
            "byteOffset" : 31101592
        },
        {
            "buffer" : 0,
            "byteLength" : 711936,
            "byteOffset" : 32169496
        },
        {
            "buffer" : 0,
            "byteLength" : 1202688,
            "byteOffset" : 32881432
        },
        {
            "buffer" : 0,
            "byteLength" : 288,
            "byteOffset" : 34084120
        },
        {
            "buffer" : 0,
            "byteLength" : 288,
            "byteOffset" : 34084408
        },
        {
            "buffer" : 0,
            "byteLength" : 192,
            "byteOffset" : 34084696
        },
        {
            "buffer" : 0,
            "byteLength" : 72,
            "byteOffset" : 34084888
        },
        {
            "buffer" : 0,
            "byteLength" : 96,
            "byteOffset" : 34084960
        },
        {
            "buffer" : 0,
            "byteLength" : 96,
            "byteOffset" : 34085056
        },
        {
            "buffer" : 0,
            "byteLength" : 64,
            "byteOffset" : 34085152
        },
        {
            "buffer" : 0,
            "byteLength" : 24,
            "byteOffset" : 34085216
        }
    ],
    "buffers" : [
        {
            "byteLength" : 34085240,
            "uri" : "Tree.bin"
        }
    ]
}
