{
  "accessors": [
    {
      "bufferView": 2,
      "componentType": 5126,
      "count": 5292,
      "max": [
        687.61700439453125,
        1196.02099609375,
        522.082275390625
      ],
      "min": [
        -721.544677734375,
        -2.7023119926452637,
        -537.6826171875
      ],
      "type": "VEC3"
    },
    {
      "bufferView": 2,
      "byteOffset": 63504,
      "componentType": 5126,
      "count": 5292,
      "max": [
        0.99847924709320068,
        0.99979221820831299,
        0.99902468919754028
      ],
      "min": [
        -0.9999845027923584,
        -0.99916756153106689,
        -0.99830102920532227
      ],
      "type": "VEC3"
    },
    {
      "bufferView": 3,
      "componentType": 5126,
      "count": 5292,
      "max": [
        0.99999964237213135,
        0.99936395883560181,
        0.9998897910118103,
        1
      ],
      "min": [
        -0.99880707263946533,
        -0.9998619556427002,
        -0.99838227033615112,
        -1
      ],
      "type": "VEC4"
    },
    {
      "bufferView": 1,
      "componentType": 5126,
      "count": 5292,
      "max": [
        0.99893200397491455,
        -0.00090899999486282468
      ],
      "min": [
        0.002884984016418457,
        -0.99092000722885132
      ],
      "type": "VEC2"
    },
    {
      "bufferView": 0,
      "componentType": 5125,
      "count": 25920,
      "max": [
        5291
      ],
      "min": [
        0
      ],
      "type": "SCALAR"
    }
  ],
  "asset": {
    "extras": {
      "author": "shadow_11 (https://sketchfab.com/shadow_11)",
      "license": "CC-BY-4.0 (http://creativecommons.org/licenses/by/4.0/)",
      "source": "https://sketchfab.com/models/e786604ea35644fe99e5a57f69922689",
      "title": "Great Deku Tree | Hyrule Warriors"
    },
    "generator": "Sketchfab-3.19.4",
    "version": "2.0"
  },
  "bufferViews": [
    {
      "buffer": 0,
      "byteLength": 103680,
      "byteOffset": 0,
      "name": "floatBufferViews",
      "target": 34963
    },
    {
      "buffer": 0,
      "byteLength": 42336,
      "byteOffset": 103680,
      "byteStride": 8,
      "name": "floatBufferViews",
      "target": 34962
    },
    {
      "buffer": 0,
      "byteLength": 127008,
      "byteOffset": 146016,
      "byteStride": 12,
      "name": "floatBufferViews",
      "target": 34962
    },
    {
      "buffer": 0,
      "byteLength": 84672,
      "byteOffset": 273024,
      "byteStride": 16,
      "name": "floatBufferViews",
      "target": 34962
    }
  ],
  "buffers": [
    {
      "byteLength": 357696,
      "uri": "scene.bin"
    }
  ],
  "images": [
    {
      "uri": "textures/material_0_baseColor.png"
    },
    {
      "uri": "textures/material_0_normal.png"
    }
  ],
  "materials": [
    {
      "alphaCutoff": 0.01,
      "alphaMode": "MASK",
      "doubleSided": false,
      "name": "material_0",
      "normalTexture": {
        "index": 1,
        "scale": 0,
        "texCoord": 0
      },
      "pbrMetallicRoughness": {
        "baseColorFactor": [
          1,
          1,
          1,
          1
        ],
        "baseColorTexture": {
          "index": 0,
          "texCoord": 0
        },
        "metallicFactor": 0,
        "roughnessFactor": 0.66902490799999992
      }
    }
  ],
  "meshes": [
    {
      "name": "material_0-material",
      "primitives": [
        {
          "attributes": {
            "NORMAL": 1,
            "POSITION": 0,
            "TANGENT": 2,
            "TEXCOORD_0": 3
          },
          "indices": 4,
          "material": 0,
          "mode": 4
        }
      ]
    }
  ],
  "nodes": [
    {
      "children": [
        1
      ],
      "name": "RootNode (gltf orientation matrix)",
      "rotation": [
        -0.70710678118654746,
        -0,
        -0,
        0.70710678118654757
      ]
    },
    {
      "children": [
        2
      ],
      "name": "RootNode (model correction matrix)"
    },
    {
      "children": [
        3
      ],
      "name": "Collada visual scene group"
    },
    {
      "children": [
        4
      ],
      "matrix": [
        1,
        0,
        0,
        0,
        0,
        -1.6292100000000001e-07,
        1,
        0,
        0,
        -1,
        -1.6292100000000001e-07,
        0,
        0,
        0,
        0,
        1
      ],
      "name": "_"
    },
    {
      "mesh": 0,
      "name": "material_0-material"
    }
  ],
  "samplers": [
    {
      "magFilter": 9729,
      "minFilter": 9987,
      "wrapS": 10497,
      "wrapT": 10497
    },
    {
      "magFilter": 9729,
      "minFilter": 9987,
      "wrapS": 33071,
      "wrapT": 10497
    }
  ],
  "scene": 0,
  "scenes": [
    {
      "name": "OSG_Scene",
      "nodes": [
        0
      ]
    }
  ],
  "textures": [
    {
      "sampler": 0,
      "source": 0
    },
    {
      "sampler": 1,
      "source": 1
    }
  ]
}

