{
  "accessors": [
    {
      "bufferView": 2,
      "componentType": 5126,
      "count": 227,
      "max": [
        14.25810718536377,
        2.763684034347534,
        0.8023204207420349
      ],
      "min": [
        -14.178439140319824,
        -1.3299155235290527,
        -18.60976791381836
      ],
      "type": "VEC3"
    },
    {
      "bufferView": 2,
      "byteOffset": 2724,
      "componentType": 5126,
      "count": 227,
      "max": [
        0.9985026717185974,
        0.9999687075614929,
        0.9642812013626099
      ],
      "min": [
        -0.9862356781959534,
        -0.9999942779541016,
        -0.9987093210220337
      ],
      "type": "VEC3"
    },
    {
      "bufferView": 1,
      "componentType": 5126,
      "count": 227,
      "max": [
        1.0,
        1.0
      ],
      "min": [
        0.0,
        0.01000000536441803
      ],
      "type": "VEC2"
    },
    {
      "bufferView": 0,
      "componentType": 5125,
      "count": 708,
      "type": "SCALAR"
    },
    {
      "bufferView": 2,
      "byteOffset": 5448,
      "componentType": 5126,
      "count": 192,
      "max": [
        -2.1996049880981445,
        1.6778337955474854,
        1.124669075012207
      ],
      "min": [
        -2.4610402584075928,
        1.3073769807815552,
        0.7791321277618408
      ],
      "type": "VEC3"
    },
    {
      "bufferView": 2,
      "byteOffset": 7752,
      "componentType": 5126,
      "count": 192,
      "max": [
        0.8957806825637817,
        0.9945240616798401,
        0.9877651929855347
      ],
      "min": [
        -0.8957805633544922,
        -0.9945244789123535,
        -0.9877654910087585
      ],
      "type": "VEC3"
    },
    {
      "bufferView": 1,
      "byteOffset": 1816,
      "componentType": 5126,
      "count": 192,
      "max": [
        1.0,
        1.0
      ],
      "min": [
        0.0,
        0.01000000536441803
      ],
      "type": "VEC2"
    },
    {
      "bufferView": 0,
      "byteOffset": 2832,
      "componentType": 5125,
      "count": 372,
      "type": "SCALAR"
    },
    {
      "bufferView": 2,
      "byteOffset": 10056,
      "componentType": 5126,
      "count": 192,
      "max": [
        2.545660972595215,
        1.8729689121246338,
        1.355228066444397
      ],
      "min": [
        2.343447685241699,
        1.5025118589401245,
        0.9471050500869751
      ],
      "type": "VEC3"
    },
    {
      "bufferView": 2,
      "byteOffset": 12360,
      "componentType": 5126,
      "count": 192,
      "max": [
        0.9421190619468689,
        0.9945235252380371,
        0.7948222756385803
      ],
      "min": [
        -0.9421190619468689,
        -0.994524359703064,
        -0.7948190569877625
      ],
      "type": "VEC3"
    },
    {
      "bufferView": 1,
      "byteOffset": 3352,
      "componentType": 5126,
      "count": 192,
      "max": [
        1.0,
        1.0
      ],
      "min": [
        0.0,
        0.01000000536441803
      ],
      "type": "VEC2"
    },
    {
      "bufferView": 0,
      "byteOffset": 4320,
      "componentType": 5125,
      "count": 372,
      "type": "SCALAR"
    }
  ],
  "asset": {
    "extras": {
      "author": "bigboymushi (https://sketchfab.com/bigboymushi)",
      "license": "CC-BY-4.0 (http://creativecommons.org/licenses/by/4.0/)",
      "source": "https://sketchfab.com/3d-models/free-low-poly-bird-29993840d6154b38a7f6a79f8da9b4aa",
      "title": "Free Low-Poly Bird"
    },
    "generator": "Sketchfab-12.6.0",
    "version": "2.0"
  },
  "bufferViews": [
    {
      "buffer": 0,
      "byteLength": 5808,
      "name": "floatBufferViews",
      "target": 34963
    },
    {
      "buffer": 0,
      "byteLength": 4888,
      "byteOffset": 5808,
      "byteStride": 8,
      "name": "floatBufferViews",
      "target": 34962
    },
    {
      "buffer": 0,
      "byteLength": 14664,
      "byteOffset": 10696,
      "byteStride": 12,
      "name": "floatBufferViews",
      "target": 34962
    }
  ],
  "buffers": [
    {
      "byteLength": 25360,
      "uri": "scene.bin"
    }
  ],
  "images": [
    {
      "uri": "textures/Material.001_baseColor.jpeg"
    }
  ],
  "materials": [
    {
      "doubleSided": true,
      "emissiveFactor": [
        0.889842,
        0.937223,
        1.0
      ],
      "name": "Material.001",
      "pbrMetallicRoughness": {
        "baseColorTexture": {
          "index": 0
        },
        "metallicFactor": 0.0,
        "roughnessFactor": 0.8211145618000169
      }
    },
    {
      "doubleSided": true,
      "name": "Material.002",
      "pbrMetallicRoughness": {
        "baseColorFactor": [
          0.0,
          0.0,
          0.0,
          1.0
        ],
        "metallicFactor": 0.0
      }
    },
    {
      "doubleSided": true,
      "name": "Material.003",
      "pbrMetallicRoughness": {
        "baseColorFactor": [
          0.0,
          0.0,
          0.0,
          1.0
        ],
        "metallicFactor": 0.0
      }
    }
  ],
  "meshes": [
    {
      "name": "Cylinder_Material.001_0",
      "primitives": [
        {
          "attributes": {
            "NORMAL": 1,
            "POSITION": 0,
            "TEXCOORD_0": 2
          },
          "indices": 3,
          "material": 0,
          "mode": 4
        }
      ]
    },
    {
      "name": "Cylinder.001_Material.002_0",
      "primitives": [
        {
          "attributes": {
            "NORMAL": 5,
            "POSITION": 4,
            "TEXCOORD_0": 6
          },
          "indices": 7,
          "material": 1,
          "mode": 4
        }
      ]
    },
    {
      "name": "Cylinder.002_Material.003_0",
      "primitives": [
        {
          "attributes": {
            "NORMAL": 9,
            "POSITION": 8,
            "TEXCOORD_0": 10
          },
          "indices": 11,
          "material": 2,
          "mode": 4
        }
      ]
    }
  ],
  "nodes": [
    {
      "children": [
        1
      ],
      "matrix": [
        1.0,
        0.0,
        0.0,
        0.0,
        0.0,
        2.220446049250313e-16,
        -1.0,
        0.0,
        0.0,
        1.0,
        2.220446049250313e-16,
        0.0,
        0.0,
        0.0,
        0.0,
        1.0
      ],
      "name": "Sketchfab_model"
    },
    {
      "children": [
        2
      ],
      "matrix": [
        0.009999999776482582,
        0.0,
        0.0,
        0.0,
        0.0,
        0.0,
        0.009999999776482582,
        0.0,
        0.0,
        -0.009999999776482582,
        0.0,
        0.0,
        0.0,
        0.0,
        0.0,
        1.0
      ],
      "name": "b7013274bafb4a38a9dfd0e68163f1ab.fbx"
    },
    {
      "children": [
        3,
        5,
        7,
        9
      ],
      "name": "RootNode"
    },
    {
      "children": [
        4
      ],
      "matrix": [
        -65.15581009765468,
        -44.527143038140764,
        -61.41704928909654,
        0.0,
        -32.40135466989878,
        89.5395708958271,
        -30.542085476036902,
        0.0,
        68.59207001076176,
        1.2755314797120858e-05,
        -72.76761921184276,
        0.0,
        735.88916015625,
        495.8309326171875,
        692.5791015625,
        1.0
      ],
      "name": "Camera"
    },
    {
      "name": "Object_4"
    },
    {
      "children": [
        6
      ],
      "matrix": [
        100.0,
        0.0,
        0.0,
        0.0,
        0.0,
        99.9999999999999,
        4.371138828673792e-06,
        0.0,
        0.0,
        -4.371138828673792e-06,
        99.9999999999999,
        0.0,
        0.0,
        0.0,
        0.0,
        1.0
      ],
      "name": "Cylinder"
    },
    {
      "mesh": 0,
      "name": "Cylinder_Material.001_0"
    },
    {
      "children": [
        8
      ],
      "matrix": [
        41.988868713378906,
        0.0,
        0.0,
        0.0,
        0.0,
        -6.8408550176781056e-06,
        -41.98886871337835,
        0.0,
        0.0,
        41.98886871337835,
        -6.8408550176781056e-06,
        0.0,
        0.0,
        0.0,
        0.0,
        1.0
      ],
      "name": "Cylinder.001"
    },
    {
      "mesh": 1,
      "name": "Cylinder.001_Material.002_0"
    },
    {
      "children": [
        10
      ],
      "matrix": [
        41.988868713378906,
        0.0,
        0.0,
        0.0,
        -0.0,
        -6.8408550176781056e-06,
        -41.98886871337835,
        0.0,
        0.0,
        41.98886871337835,
        -6.8408550176781056e-06,
        0.0,
        -37.418128967285156,
        0.0,
        0.0,
        1.0
      ],
      "name": "Cylinder.002"
    },
    {
      "mesh": 2,
      "name": "Cylinder.002_Material.003_0"
    }
  ],
  "samplers": [
    {
      "magFilter": 9729,
      "minFilter": 9987,
      "wrapS": 10497,
      "wrapT": 10497
    }
  ],
  "scene": 0,
  "scenes": [
    {
      "name": "Sketchfab_Scene",
      "nodes": [
        0
      ]
    }
  ],
  "textures": [
    {
      "sampler": 0,
      "source": 0
    }
  ]
}
