{
  "accessors": [
    {
      "bufferView": 2,
      "componentType": 5126,
      "count": 61130,
      "max": [
        684.4415283203125,
        144.52763366699219,
        472.02633666992188
      ],
      "min": [
        -650.45184326171875,
        -29.36552619934082,
        -710.8033447265625
      ],
      "type": "VEC3"
    },
    {
      "bufferView": 2,
      "byteOffset": 733560,
      "componentType": 5126,
      "count": 61130,
      "max": [
        0.9999924898147583,
        1,
        0.9999997615814209
      ],
      "min": [
        -1,
        -1,
        -1
      ],
      "type": "VEC3"
    },
    {
      "bufferView": 3,
      "componentType": 5126,
      "count": 61130,
      "max": [
        1,
        0.99088084697723389,
        1,
        1
      ],
      "min": [
        -0.99999994039535522,
        -0.99950981140136719,
        -1,
        -1
      ],
      "type": "VEC4"
    },
    {
      "bufferView": 1,
      "componentType": 5126,
      "count": 61130,
      "max": [
        0.92250180244445801,
        0.94162237644195557
      ],
      "min": [
        0.019953161478042603,
        0.072153434157371521
      ],
      "type": "VEC2"
    },
    {
      "bufferView": 1,
      "byteOffset": 489040,
      "componentType": 5126,
      "count": 61130,
      "max": [
        0.92250180244445801,
        0.94162237644195557
      ],
      "min": [
        0.019953161478042603,
        0.072153434157371521
      ],
      "type": "VEC2"
    },
    {
      "bufferView": 0,
      "componentType": 5125,
      "count": 162960,
      "max": [
        61129
      ],
      "min": [
        0
      ],
      "type": "SCALAR"
    },
    {
      "bufferView": 2,
      "byteOffset": 1467120,
      "componentType": 5126,
      "count": 4,
      "max": [
        707.75811767578125,
        1.5715387162180267e-13,
        707.75811767578125
      ],
      "min": [
        -707.75811767578125,
        -1.5715387162180267e-13,
        -707.75811767578125
      ],
      "type": "VEC3"
    },
    {
      "bufferView": 2,
      "byteOffset": 1467168,
      "componentType": 5126,
      "count": 4,
      "max": [
        0,
        1,
        2.2204460492503131e-16
      ],
      "min": [
        0,
        1,
        2.2204460492503131e-16
      ],
      "type": "VEC3"
    },
    {
      "bufferView": 3,
      "byteOffset": 978080,
      "componentType": 5126,
      "count": 4,
      "max": [
        1,
        0,
        0,
        1
      ],
      "min": [
        1,
        0,
        0,
        1
      ],
      "type": "VEC4"
    },
    {
      "bufferView": 1,
      "byteOffset": 978080,
      "componentType": 5126,
      "count": 4,
      "max": [
        1,
        1
      ],
      "min": [
        0,
        0
      ],
      "type": "VEC2"
    },
    {
      "bufferView": 0,
      "byteOffset": 651840,
      "componentType": 5125,
      "count": 6,
      "max": [
        3
      ],
      "min": [
        0
      ],
      "type": "SCALAR"
    },
    {
      "bufferView": 2,
      "byteOffset": 1467216,
      "componentType": 5126,
      "count": 6000,
      "max": [
        672.49078369140625,
        940.994873046875,
        475.40939331054688
      ],
      "min": [
        -564.775390625,
        332.44219970703125,
        -598.3428955078125
      ],
      "type": "VEC3"
    },
    {
      "bufferView": 2,
      "byteOffset": 1539216,
      "componentType": 5126,
      "count": 6000,
      "max": [
        0.99954140186309814,
        0.99989968538284302,
        0.99999839067459106
      ],
      "min": [
        -0.99979692697525024,
        -0.99767893552780151,
        -0.99959194660186768
      ],
      "type": "VEC3"
    },
    {
      "bufferView": 3,
      "byteOffset": 978144,
      "componentType": 5126,
      "count": 6000,
      "max": [
        0.99979692697525024,
        0.99767899513244629,
        0.99999839067459106,
        1
      ],
      "min": [
        -0.99973559379577637,
        -0.99989974498748779,
        -0.99959200620651245,
        1
      ],
      "type": "VEC4"
    },
    {
      "bufferView": 1,
      "byteOffset": 978112,
      "componentType": 5126,
      "count": 6000,
      "max": [
        0.9215349555015564,
        0.86907386779785156
      ],
      "min": [
        0.52813106775283813,
        0.0032980442047119141
      ],
      "type": "VEC2"
    },
    {
      "bufferView": 1,
      "byteOffset": 1026112,
      "componentType": 5126,
      "count": 6000,
      "max": [
        0.9215349555015564,
        0.86907386779785156
      ],
      "min": [
        0.52813106775283813,
        0.0032980442047119141
      ],
      "type": "VEC2"
    },
    {
      "bufferView": 0,
      "byteOffset": 651864,
      "componentType": 5125,
      "count": 9000,
      "max": [
        5999
      ],
      "min": [
        0
      ],
      "type": "SCALAR"
    },
    {
      "bufferView": 2,
      "byteOffset": 1611216,
      "componentType": 5126,
      "count": 2338,
      "max": [
        557.19610595703125,
        661.44195556640625,
        295.3570556640625
      ],
      "min": [
        -412.0628662109375,
        -1.1618606549745891e-05,
        -380.230712890625
      ],
      "type": "VEC3"
    },
    {
      "bufferView": 2,
      "byteOffset": 1639272,
      "componentType": 5126,
      "count": 2338,
      "max": [
        0.99998897314071655,
        0.99847757816314697,
        0.99997013807296753
      ],
      "min": [
        -0.99998933076858521,
        -0.99893110990524292,
        -0.9999701976776123
      ],
      "type": "VEC3"
    },
    {
      "bufferView": 3,
      "byteOffset": 1074144,
      "componentType": 5126,
      "count": 2338,
      "max": [
        1,
        0.99547159671783447,
        1,
        1
      ],
      "min": [
        -1,
        -0.99506735801696777,
        -1,
        -1
      ],
      "type": "VEC4"
    },
    {
      "bufferView": 1,
      "byteOffset": 1074112,
      "componentType": 5126,
      "count": 2338,
      "max": [
        0.47319099307060242,
        0.97655141353607178
      ],
      "min": [
        0.048829257488250732,
        0.015182187780737877
      ],
      "type": "VEC2"
    },
    {
      "bufferView": 1,
      "byteOffset": 1092816,
      "componentType": 5126,
      "count": 2338,
      "max": [
        0.47319099307060242,
        0.97655141353607178
      ],
      "min": [
        0.048829257488250732,
        0.015182187780737877
      ],
      "type": "VEC2"
    },
    {
      "bufferView": 0,
      "byteOffset": 687864,
      "componentType": 5125,
      "count": 11340,
      "max": [
        2337
      ],
      "min": [
        0
      ],
      "type": "SCALAR"
    }
  ],
  "asset": {
    "extras": {
      "author": "Vetle (https://sketchfab.com/arja)",
      "license": "CC-BY-NC-ND-4.0 (http://creativecommons.org/licenses/by-nc-nd/4.0/)",
      "source": "https://sketchfab.com/3d-models/trees-and-foliage-c3423a86515444a2b323d422ac16e710",
      "title": "Trees and foliage"
    },
    "generator": "Sketchfab-7.0.0",
    "version": "2.0"
  },
  "bufferViews": [
    {
      "buffer": 0,
      "byteLength": 733224,
      "byteOffset": 0,
      "name": "floatBufferViews",
      "target": 34963
    },
    {
      "buffer": 0,
      "byteLength": 1111520,
      "byteOffset": 733224,
      "byteStride": 8,
      "name": "floatBufferViews",
      "target": 34962
    },
    {
      "buffer": 0,
      "byteLength": 1667328,
      "byteOffset": 1844744,
      "byteStride": 12,
      "name": "floatBufferViews",
      "target": 34962
    },
    {
      "buffer": 0,
      "byteLength": 1111552,
      "byteOffset": 3512072,
      "byteStride": 16,
      "name": "floatBufferViews",
      "target": 34962
    }
  ],
  "buffers": [
    {
      "byteLength": 4623624,
      "uri": "scene.bin"
    }
  ],
  "images": [
    {
      "uri": "textures/m_plants_baseColor.png"
    },
    {
      "uri": "textures/ground_baseColor.png"
    },
    {
      "uri": "textures/m_leaves_baseColor.png"
    },
    {
      "uri": "textures/m_tree_baseColor.png"
    }
  ],
  "materials": [
    {
      "alphaCutoff": 0.20932918524592178,
      "alphaMode": "MASK",
      "doubleSided": true,
      "emissiveFactor": [
        0,
        0,
        0
      ],
      "name": "m_plants",
      "pbrMetallicRoughness": {
        "baseColorFactor": [
          1,
          1,
          1,
          1
        ],
        "baseColorTexture": {
          "index": 0,
          "texCoord": 0
        },
        "metallicFactor": 0,
        "roughnessFactor": 1
      }
    },
    {
      "doubleSided": false,
      "emissiveFactor": [
        0,
        0,
        0
      ],
      "name": "ground",
      "pbrMetallicRoughness": {
        "baseColorFactor": [
          1,
          1,
          1,
          1
        ],
        "baseColorTexture": {
          "index": 1,
          "texCoord": 0
        },
        "metallicFactor": 0,
        "roughnessFactor": 1
      }
    },
    {
      "alphaCutoff": 0.51121597769875193,
      "alphaMode": "MASK",
      "doubleSided": true,
      "emissiveFactor": [
        0,
        0,
        0
      ],
      "name": "m_leaves",
      "pbrMetallicRoughness": {
        "baseColorFactor": [
          1,
          1,
          1,
          1
        ],
        "baseColorTexture": {
          "index": 2,
          "texCoord": 0
        },
        "metallicFactor": 0,
        "roughnessFactor": 1
      }
    },
    {
      "doubleSided": true,
      "emissiveFactor": [
        0,
        0,
        0
      ],
      "name": "m_tree",
      "pbrMetallicRoughness": {
        "baseColorFactor": [
          1,
          1,
          1,
          1
        ],
        "baseColorTexture": {
          "index": 3,
          "texCoord": 0
        },
        "metallicFactor": 0,
        "roughnessFactor": 0.59999999999999998
      }
    }
  ],
  "meshes": [
    {
      "name": "MASH3_ReproMesh1_m_plants_0",
      "primitives": [
        {
          "attributes": {
            "NORMAL": 1,
            "POSITION": 0,
            "TANGENT": 2,
            "TEXCOORD_0": 3,
            "TEXCOORD_1": 4
          },
          "indices": 5,
          "material": 0,
          "mode": 4
        }
      ]
    },
    {
      "name": "MASH3_ReproMesh1_ground_0",
      "primitives": [
        {
          "attributes": {
            "NORMAL": 7,
            "POSITION": 6,
            "TANGENT": 8,
            "TEXCOORD_0": 9
          },
          "indices": 10,
          "material": 1,
          "mode": 4
        }
      ]
    },
    {
      "name": "MASH3_ReproMesh1_m_leaves_0",
      "primitives": [
        {
          "attributes": {
            "NORMAL": 12,
            "POSITION": 11,
            "TANGENT": 13,
            "TEXCOORD_0": 14,
            "TEXCOORD_1": 15
          },
          "indices": 16,
          "material": 2,
          "mode": 4
        }
      ]
    },
    {
      "name": "MASH3_ReproMesh1_m_tree_0",
      "primitives": [
        {
          "attributes": {
            "NORMAL": 18,
            "POSITION": 17,
            "TANGENT": 19,
            "TEXCOORD_0": 20,
            "TEXCOORD_1": 21
          },
          "indices": 22,
          "material": 3,
          "mode": 4
        }
      ]
    }
  ],
  "nodes": [
    {
      "children": [
        1
      ],
      "name": "RootNode (gltf orientation matrix)",
      "rotation": [
        -0.70710678118654746,
        -0,
        -0,
        0.70710678118654757
      ]
    },
    {
      "children": [
        2
      ],
      "name": "RootNode (model correction matrix)"
    },
    {
      "children": [
        3
      ],
      "matrix": [
        1,
        0,
        0,
        0,
        0,
        0,
        1,
        0,
        0,
        -1,
        0,
        0,
        0,
        0,
        0,
        1
      ],
      "name": "3efb8be40a014d00aedabb6503844092.fbx"
    },
    {
      "children": [
        4
      ],
      "name": "RootNode"
    },
    {
      "children": [
        5,
        6,
        7,
        8
      ],
      "name": "MASH3_ReproMesh1"
    },
    {
      "mesh": 0,
      "name": "MASH3_ReproMesh1_m_plants_0"
    },
    {
      "mesh": 1,
      "name": "MASH3_ReproMesh1_ground_0"
    },
    {
      "mesh": 2,
      "name": "MASH3_ReproMesh1_m_leaves_0"
    },
    {
      "mesh": 3,
      "name": "MASH3_ReproMesh1_m_tree_0"
    }
  ],
  "samplers": [
    {
      "magFilter": 9729,
      "minFilter": 9987,
      "wrapS": 10497,
      "wrapT": 10497
    }
  ],
  "scene": 0,
  "scenes": [
    {
      "name": "OSG_Scene",
      "nodes": [
        0
      ]
    }
  ],
  "textures": [
    {
      "sampler": 0,
      "source": 0
    },
    {
      "sampler": 0,
      "source": 1
    },
    {
      "sampler": 0,
      "source": 2
    },
    {
      "sampler": 0,
      "source": 3
    }
  ]
}

