{
  "accessors": [
    {
      "bufferView": 2,
      "componentType": 5126,
      "count": 1817,
      "max": [
        171.95697021484375,
        469.14410400390625,
        181.56204223632812
      ],
      "min": [
        -147.89628601074219,
        -25.91588020324707,
        -217.74974060058594
      ],
      "type": "VEC3"
    },
    {
      "bufferView": 2,
      "byteOffset": 21804,
      "componentType": 5126,
      "count": 1817,
      "max": [
        0.99804407358169556,
        0.99992775917053223,
        0.99834299087524414
      ],
      "min": [
        -0.99535280466079712,
        -0.9999920129776001,
        -0.99998974800109863
      ],
      "type": "VEC3"
    },
    {
      "bufferView": 3,
      "componentType": 5126,
      "count": 1817,
      "max": [
        0.99920356273651123,
        0.99942624568939209,
        0.99527263641357422,
        1
      ],
      "min": [
        -0.99924266338348389,
        -0.99895966053009033,
        -0.99868738651275635,
        -1
      ],
      "type": "VEC4"
    },
    {
      "bufferView": 1,
      "componentType": 5126,
      "count": 1817,
      "max": [
        1,
        4.5
      ],
      "min": [
        0,
        -3.5
      ],
      "type": "VEC2"
    },
    {
      "bufferView": 1,
      "byteOffset": 14536,
      "componentType": 5126,
      "count": 1817,
      "max": [
        1,
        4.5
      ],
      "min": [
        0,
        -3.5
      ],
      "type": "VEC2"
    },
    {
      "bufferView": 1,
      "byteOffset": 29072,
      "componentType": 5126,
      "count": 1817,
      "max": [
        1,
        4.5
      ],
      "min": [
        0,
        -3.5
      ],
      "type": "VEC2"
    },
    {
      "bufferView": 0,
      "componentType": 5125,
      "count": 7596,
      "max": [
        1816
      ],
      "min": [
        0
      ],
      "type": "SCALAR"
    },
    {
      "bufferView": 2,
      "byteOffset": 43608,
      "componentType": 5126,
      "count": 735,
      "max": [
        218.54267883300781,
        309.10440063476562,
        264.73715209960938
      ],
      "min": [
        -220.26422119140625,
        -20.83568000793457,
        -261.322265625
      ],
      "type": "VEC3"
    },
    {
      "bufferView": 2,
      "byteOffset": 52428,
      "componentType": 5126,
      "count": 735,
      "max": [
        0.99468147754669189,
        0.99977761507034302,
        0.99824309349060059
      ],
      "min": [
        -0.99161183834075928,
        -0.92273348569869995,
        -0.99928390979766846
      ],
      "type": "VEC3"
    },
    {
      "bufferView": 3,
      "byteOffset": 29072,
      "componentType": 5126,
      "count": 735,
      "max": [
        0.99868112802505493,
        0.65776348114013672,
        0.99726903438568115,
        1
      ],
      "min": [
        -0.99817568063735962,
        -0.85269206762313843,
        -0.99973613023757935,
        1
      ],
      "type": "VEC4"
    },
    {
      "bufferView": 3,
      "byteOffset": 40832,
      "componentType": 5126,
      "count": 735,
      "max": [
        0,
        1,
        0,
        0
      ],
      "min": [
        0,
        0,
        0,
        0
      ],
      "type": "VEC4"
    },
    {
      "bufferView": 1,
      "byteOffset": 43608,
      "componentType": 5126,
      "count": 735,
      "max": [
        0.99461758136749268,
        0.96647089719772339
      ],
      "min": [
        0.044169612228870392,
        0.0039041042327880859
      ],
      "type": "VEC2"
    },
    {
      "bufferView": 1,
      "byteOffset": 49488,
      "componentType": 5126,
      "count": 735,
      "max": [
        0.99461758136749268,
        0.96647089719772339
      ],
      "min": [
        0.044169612228870392,
        0.0039041042327880859
      ],
      "type": "VEC2"
    },
    {
      "bufferView": 1,
      "byteOffset": 55368,
      "componentType": 5126,
      "count": 735,
      "max": [
        0.99461758136749268,
        0.96647089719772339
      ],
      "min": [
        0.044169612228870392,
        0.0039041042327880859
      ],
      "type": "VEC2"
    },
    {
      "bufferView": 1,
      "byteOffset": 61248,
      "componentType": 5126,
      "count": 735,
      "max": [
        0.99461758136749268,
        0.96647089719772339
      ],
      "min": [
        0.044169612228870392,
        0.0039041042327880859
      ],
      "type": "VEC2"
    },
    {
      "bufferView": 1,
      "byteOffset": 67128,
      "componentType": 5126,
      "count": 735,
      "max": [
        0.99461758136749268,
        0.96647089719772339
      ],
      "min": [
        0.044169612228870392,
        0.0039041042327880859
      ],
      "type": "VEC2"
    },
    {
      "bufferView": 0,
      "byteOffset": 30384,
      "componentType": 5125,
      "count": 2352,
      "max": [
        734
      ],
      "min": [
        0
      ],
      "type": "SCALAR"
    }
  ],
  "asset": {
    "extras": {
      "author": "3DMaesen (https://sketchfab.com/bumstrum)",
      "license": "CC-BY-4.0 (http://creativecommons.org/licenses/by/4.0/)",
      "source": "https://sketchfab.com/3d-models/tree-a2a6237a270840e198cc7db1c47f1ef7",
      "title": "Tree"
    },
    "generator": "Sketchfab-6.52.0",
    "version": "2.0"
  },
  "bufferViews": [
    {
      "buffer": 0,
      "byteLength": 39792,
      "byteOffset": 0,
      "name": "floatBufferViews",
      "target": 34963
    },
    {
      "buffer": 0,
      "byteLength": 73008,
      "byteOffset": 39792,
      "byteStride": 8,
      "name": "floatBufferViews",
      "target": 34962
    },
    {
      "buffer": 0,
      "byteLength": 61248,
      "byteOffset": 112800,
      "byteStride": 12,
      "name": "floatBufferViews",
      "target": 34962
    },
    {
      "buffer": 0,
      "byteLength": 52592,
      "byteOffset": 174048,
      "byteStride": 16,
      "name": "floatBufferViews",
      "target": 34962
    }
  ],
  "buffers": [
    {
      "byteLength": 226640,
      "uri": "scene.bin"
    }
  ],
  "extensionsRequired": [
    "KHR_materials_pbrSpecularGlossiness"
  ],
  "extensionsUsed": [
    "KHR_materials_pbrSpecularGlossiness"
  ],
  "images": [
    {
      "uri": "textures/bark_diffuse.png"
    },
    {
      "uri": "textures/bark_specularGlossiness.png"
    },
    {
      "uri": "textures/bark_normal.png"
    },
    {
      "uri": "textures/bark_occlusion.png"
    },
    {
      "uri": "textures/leaves_diffuse.png"
    },
    {
      "uri": "textures/leaves_specularGlossiness.png"
    },
    {
      "uri": "textures/leaves_normal.png"
    }
  ],
  "materials": [
    {
      "doubleSided": false,
      "extensions": {
        "KHR_materials_pbrSpecularGlossiness": {
          "diffuseFactor": [
            1,
            1,
            1,
            1
          ],
          "diffuseTexture": {
            "index": 0,
            "texCoord": 0
          },
          "glossinessFactor": 1,
          "specularFactor": [
            1,
            1,
            1
          ],
          "specularGlossinessTexture": {
            "index": 1,
            "texCoord": 0
          }
        }
      },
      "name": "bark",
      "normalTexture": {
        "index": 2,
        "scale": 1,
        "texCoord": 0
      },
      "occlusionTexture": {
        "index": 3,
        "strength": 1,
        "texCoord": 0
      }
    },
    {
      "alphaCutoff": 0.12976371951219512,
      "alphaMode": "MASK",
      "doubleSided": true,
      "extensions": {
        "KHR_materials_pbrSpecularGlossiness": {
          "diffuseFactor": [
            1,
            1,
            1,
            1
          ],
          "diffuseTexture": {
            "index": 4,
            "texCoord": 0
          },
          "glossinessFactor": 1,
          "specularFactor": [
            1,
            1,
            1
          ],
          "specularGlossinessTexture": {
            "index": 5,
            "texCoord": 0
          }
        }
      },
      "name": "leaves",
      "normalTexture": {
        "index": 6,
        "scale": 1,
        "texCoord": 0
      }
    }
  ],
  "meshes": [
    {
      "name": "tree_bark_0",
      "primitives": [
        {
          "attributes": {
            "NORMAL": 1,
            "POSITION": 0,
            "TANGENT": 2,
            "TEXCOORD_0": 3,
            "TEXCOORD_1": 4,
            "TEXCOORD_2": 5
          },
          "indices": 6,
          "material": 0,
          "mode": 4
        }
      ]
    },
    {
      "name": "leaves_leaves_0",
      "primitives": [
        {
          "attributes": {
            "COLOR_0": 10,
            "NORMAL": 8,
            "POSITION": 7,
            "TANGENT": 9,
            "TEXCOORD_0": 11,
            "TEXCOORD_1": 12,
            "TEXCOORD_2": 13,
            "TEXCOORD_3": 14,
            "TEXCOORD_4": 15
          },
          "indices": 16,
          "material": 1,
          "mode": 4
        }
      ]
    }
  ],
  "nodes": [
    {
      "children": [
        1
      ],
      "name": "RootNode (gltf orientation matrix)",
      "rotation": [
        -0.70710678118654746,
        -0,
        -0,
        0.70710678118654757
      ]
    },
    {
      "children": [
        2
      ],
      "name": "RootNode (model correction matrix)"
    },
    {
      "children": [
        3
      ],
      "matrix": [
        1,
        0,
        0,
        0,
        0,
        0,
        1,
        0,
        0,
        -1,
        0,
        0,
        0,
        0,
        0,
        1
      ],
      "name": "92fb353c74d642f4a8ddfd7a6fdb1976.fbx"
    },
    {
      "children": [
        4
      ],
      "name": "RootNode"
    },
    {
      "children": [
        5,
        6
      ],
      "name": "tree"
    },
    {
      "mesh": 0,
      "name": "tree_bark_0"
    },
    {
      "children": [
        7
      ],
      "matrix": [
        1,
        0,
        0,
        0,
        0,
        1,
        0,
        0,
        0,
        0,
        1,
        0,
        20.473453521728516,
        228.66349792480469,
        -23.066381454467773,
        1
      ],
      "name": "leaves"
    },
    {
      "mesh": 1,
      "name": "leaves_leaves_0"
    }
  ],
  "samplers": [
    {
      "magFilter": 9729,
      "minFilter": 9987,
      "wrapS": 10497,
      "wrapT": 10497
    }
  ],
  "scene": 0,
  "scenes": [
    {
      "name": "OSG_Scene",
      "nodes": [
        0
      ]
    }
  ],
  "textures": [
    {
      "sampler": 0,
      "source": 0
    },
    {
      "sampler": 0,
      "source": 1
    },
    {
      "sampler": 0,
      "source": 2
    },
    {
      "sampler": 0,
      "source": 3
    },
    {
      "sampler": 0,
      "source": 4
    },
    {
      "sampler": 0,
      "source": 5
    },
    {
      "sampler": 0,
      "source": 6
    }
  ]
}

